PathFileType	4	(X/Y/Z)	PS_ngait_og_ss8.trc	
DataRate	CameraRate	NumFrames	NumMarkers	Units	OrigDataRate	OrigDataStartFrame	OrigNumFrames	
120.00	120.00	4	39	mm	120.00	490	129	
Frame#	Time	Sternum			Neck			RShoulder			LShoulder			Xiphoid			Thoracic			RAsis			LAsis			RPsis			LPsis			LThighSuperior			LThighInferior			LThighLateral			LShankSuperior			LShankInferior			LShankLateral			RThighSuperior			RThighInferior			RThighLateral			RShankSuperior			RShankInferior			RShankLateral			RHeel			RToe			RMidfootMedial			RMidfootLateral			RHindfoot			RMidfootSuperior			RToeMedial			RToeLateral			LHeel			LToe			LMidfootMedial			LMidfootLateral			LHindfoot			LMidfootSuperior			LToeMedial			LToeLateral			Sacral			
		X1	Y1	Z1	X2	Y2	Z2	X3	Y3	Z3	X4	Y4	Z4	X5	Y5	Z5	X6	Y6	Z6	X7	Y7	Z7	X8	Y8	Z8	X9	Y9	Z9	X10	Y10	Z10	X11	Y11	Z11	X12	Y12	Z12	X13	Y13	Z13	X14	Y14	Z14	X15	Y15	Z15	X16	Y16	Z16	X17	Y17	Z17	X18	Y18	Z18	X19	Y19	Z19	X20	Y20	Z20	X21	Y21	Z21	X22	Y22	Z22	X23	Y23	Z23	X24	Y24	Z24	X25	Y25	Z25	X26	Y26	Z26	X27	Y27	Z27	X28	Y28	Z28	X29	Y29	Z29	X30	Y30	Z30	X31	Y31	Z31	X32	Y32	Z32	X33	Y33	Z33	X34	Y34	Z34	X35	Y35	Z35	X36	Y36	Z36	X37	Y37	Z37	X38	Y38	Z38	X39	Y39	Z39	

113	0.933	1019.93091	1447.25110	122.76434	858.18469	1545.25012	149.04463	925.51801	1528.67493	302.26721	870.13190	1535.40332	4.95954	1054.47058	1288.53369	123.30919	777.36017	1327.77686	162.31311	984.36499	1027.49792	268.88605	961.15363	1014.75073	-4.39926	787.31305	1044.93005	205.98557	773.08228	1038.68298	103.87237	935.42889	850.09576	-59.06294	1042.88538	641.19855	-47.48705	1080.66309	765.17761	-1.03590	1063.24536	415.19058	-57.81905	1028.69153	217.12209	-17.39283	1089.54236	310.10809	10.11057	916.74792	826.01575	318.01190	898.78699	586.84216	284.42880	993.90186	734.73090	239.34225	860.63013	429.20084	289.61417	821.06653	177.32870	250.64990	889.69452	297.65723	208.22826	717.25586	67.67882	195.61678	1034.22192	47.72504	207.57178	937.71692	32.58892	155.87187	932.33826	29.68456	274.92188	877.99683	31.31927	264.89941	902.08002	95.04411	205.94955	981.19562	34.26280	159.68666	981.30231	34.97383	263.16611	942.49341	105.11180	51.44622	1239.84802	68.44517	-29.45765	1153.05225	53.39052	44.89290	1128.02417	44.90981	-66.87727	1077.65466	49.99724	-47.77731	1126.12805	116.54388	-3.25504	1193.08118	51.42321	31.93463	1172.34363	52.29016	-69.99008	780.19763	1041.80652	154.92897 
114	0.942	1028.33911	1446.40259	122.44806	866.73853	1544.73730	148.43869	933.71027	1527.91858	301.88779	878.97711	1534.72363	4.72469	1062.60620	1287.61035	123.11768	785.34119	1327.33459	161.51062	991.51501	1026.58081	268.64700	969.26593	1013.94086	-4.79418	794.72705	1044.43396	205.03671	780.88300	1038.10156	102.88803	942.95850	848.53992	-59.28651	1049.62451	640.08405	-46.78823	1087.76538	763.65906	-0.09670	1076.57263	413.19037	-57.73036	1051.03015	213.59842	-19.63882	1107.86365	309.13074	8.73476	922.43225	825.61981	317.74268	902.50787	586.47424	284.29510	998.69153	733.24164	239.42250	863.17267	429.08981	289.36041	821.79083	177.38501	250.59370	891.32251	297.57748	208.31235	717.50299	67.74183	195.44991	1034.08923	47.65188	207.57782	937.69159	32.61462	155.78255	932.38751	29.66515	274.99222	877.94733	31.34161	264.98862	901.97632	95.04745	205.83124	981.11212	34.25257	159.62070	981.09644	34.89296	263.10068	970.52539	97.28386	48.66389	1268.74646	73.22484	-33.64158	1183.12805	54.24891	41.05049	1157.76880	44.88911	-70.18021	1107.38745	48.30890	-51.26777	1153.29968	116.32687	-6.78632	1223.07861	54.04669	27.94205	1201.80859	54.22008	-73.87640	787.80505	1041.26770	153.96237 
115	0.950	1036.63721	1445.35413	122.10444	875.10120	1544.01758	147.85823	941.93585	1527.06677	301.39786	887.80267	1534.07813	4.15140	1070.76794	1286.66333	122.99944	793.35022	1326.73792	160.62856	998.70673	1025.79736	268.62692	977.54150	1013.11102	-5.12546	802.20331	1043.86951	204.19768	788.74915	1037.39734	101.81284	950.37775	846.54565	-58.83849	1056.10437	638.48792	-45.62866	1094.59937	762.16058	0.73407	1089.21082	411.51093	-58.07931	1073.33386	210.35419	-22.06134	1125.89966	308.00995	7.13721	928.07916	825.03522	317.37619	906.35529	586.10162	284.02911	1003.84070	731.91498	239.53909	865.78949	429.10495	289.12759	822.56622	177.47972	250.42107	893.57428	297.24448	208.36021	717.42267	67.82069	195.25499	1034.20764	47.44632	207.59706	937.72961	32.58612	155.79514	932.27417	29.44232	274.89734	878.04095	31.33335	264.96686	902.14807	94.99457	205.97015	981.19653	34.17583	159.64166	981.22211	34.66832	263.12244	998.55640	90.18761	45.76571	1297.17139	78.75845	-37.90592	1212.87402	56.01033	37.09085	1187.40845	45.88160	-73.98618	1137.15393	46.85567	-54.75733	1180.13757	117.10747	-10.41643	1252.66309	57.51114	23.84732	1230.89539	57.04517	-77.86498	795.47620	1040.63342	153.00526 
116	0.958	1045.15613	1444.31348	121.74120	883.66229	1543.24939	147.25694	950.05450	1526.16504	300.81818	896.65759	1533.33655	3.51957	1078.95447	1285.65051	122.81011	801.47864	1326.12244	159.45016	1005.72064	1025.26904	268.52252	986.03625	1011.97766	-5.50420	809.57251	1043.13892	202.97134	796.76904	1036.65369	100.49635	958.10437	845.54236	-59.61794	1062.18042	636.77771	-44.53515	1101.43494	760.24542	1.64865	1101.89551	410.20776	-58.56241	1095.46057	207.35886	-24.06405	1143.62329	307.38324	5.41952	933.67725	824.59119	316.86472	910.22284	585.72156	283.79507	1009.42517	730.82104	239.67216	868.36304	428.90619	288.85638	823.22540	177.60994	250.26768	895.57141	296.93222	208.38918	717.38409	68.09428	195.39653	1034.25989	47.16028	207.54056	937.65826	32.60118	155.61745	932.39697	29.51231	275.09244	878.60077	31.21765	264.93594	902.35834	95.14206	205.82870	981.23657	34.06448	159.55067	981.19672	34.55582	263.03146	1026.35791	84.13623	42.61535	1325.00757	84.98922	-42.27615	1241.90796	58.61146	33.06587	1216.34595	47.84295	-78.08366	1166.61169	46.38938	-58.13605	1206.53406	118.50124	-14.08681	1281.64233	61.77148	19.58088	1259.48010	60.79231	-82.04255	803.17078	1039.89624	151.73384 
